<?xml version="1.0" encoding="UTF-8" standalone="no"?>
<!-- Created with Inkscape (http://www.inkscape.org/) -->

<svg
   width="260.15558"
   height="260.15472"
   viewBox="0 0 68.832829 68.832604"
   version="1.1"
   id="svg1"
   xmlns="http://www.w3.org/2000/svg"
   xmlns:svg="http://www.w3.org/2000/svg">
  <defs
     id="defs1" />
  <g
     id="layer1"
     transform="translate(-5.271081,-5.2711983)">
    <g
       id="g5"
       transform="matrix(1.191148,0,0,1.191148,-8.9018003,-8.702249)">
      <path
         style="baseline-shift:baseline;display:inline;overflow:visible;opacity:1;vector-effect:none;fill:#ffffff;stroke:none;stroke-linecap:round;enable-background:accumulate;stop-color:#000000;stop-opacity:1"
         d="m 22.252631,13.508586 a 6.0647502,6.0647502 0 0 0 -8.57782,-0.0014 6.0647502,6.0647502 0 0 0 10e-4,8.577814 l 45.65534,45.65534 a 6.0647502,6.0647502 0 0 0 8.57782,0.0014 6.0647502,6.0647502 0 0 0 -10e-4,-8.577816 z"
         id="path4" />
      <path
         style="baseline-shift:baseline;display:inline;overflow:visible;opacity:1;vector-effect:none;fill:#ffffff;stroke:none;stroke-linecap:round;enable-background:accumulate;stop-color:#000000;stop-opacity:1"
         d="m 13.676011,59.163724 a 6.0647502,6.0647502 0 0 0 -0.001,8.57782 6.0647502,6.0647502 0 0 0 8.57782,-0.001 l 45.65534,-45.65534 a 6.0647502,6.0647502 0 0 0 0.001,-8.57782 6.0647502,6.0647502 0 0 0 -8.57782,10e-4 z"
         id="path5" />
    </g>
  </g>
</svg>
