<?xml version="1.0" encoding="UTF-8" standalone="no"?>
<!-- Created with Inkscape (http://www.inkscape.org/) -->

<svg
   width="130"
   height="130"
   viewBox="0 0 34.395834 34.395834"
   version="1.1"
   id="svg1"
   xml:space="preserve"
   sodipodi:docname="favicon.svg"
   inkscape:version="1.4.3 (0d15f75042, 2025-12-25)"
   xmlns:inkscape="http://www.inkscape.org/namespaces/inkscape"
   xmlns:sodipodi="http://sodipodi.sourceforge.net/DTD/sodipodi-0.dtd"
   xmlns="http://www.w3.org/2000/svg"
   xmlns:svg="http://www.w3.org/2000/svg"><sodipodi:namedview
     id="namedview1"
     pagecolor="#505050"
     bordercolor="#eeeeee"
     borderopacity="1"
     inkscape:showpageshadow="0"
     inkscape:pageopacity="0"
     inkscape:pagecheckerboard="0"
     inkscape:deskcolor="#505050"
     inkscape:document-units="mm"
     inkscape:zoom="3.2752932"
     inkscape:cx="64.574373"
     inkscape:cy="21.219475"
     inkscape:window-width="1858"
     inkscape:window-height="1022"
     inkscape:window-x="0"
     inkscape:window-y="0"
     inkscape:window-maximized="1"
     inkscape:current-layer="svg1" /><defs
     id="defs1" /><g
     id="layer1"
     transform="matrix(0.95266272,0,0,0.95266272,-565.82733,-89.583975)"><g
       id="g93"
       transform="matrix(0.26996806,0,0,0.26996806,490.57307,96.248159)"
       style="stroke-width:3.70414"><path
         id="path89"
         style="fill:#1a84d2;fill-opacity:1;stroke-width:10.1577;paint-order:markers fill stroke"
         transform="matrix(1,0,-0.36526931,0.93090189,358.48239,-0.156639)"
         d="m 126.86647,43.408586 12.58214,17.223362 a 9.7287229,9.7287229 71.925099 0 1 1.87294,5.738762 l 1.7e-4,16.000886 a 3.1750355,3.1750355 44.99968 0 0 3.17504,3.175 h 30.43742 a 3.1750369,3.1750369 135.00033 0 0 3.17504,-3.175 l 1.8e-4,-16.000886 a 9.7281013,9.7281013 71.925327 0 0 -1.8729,-5.738734 L 163.65393,43.408558 a 6.2515067,6.2515067 26.924993 0 0 -5.04794,-2.563734 h -30.43742 a 1.612541,1.612541 116.92542 0 0 -1.3021,2.563762 z m -41.435856,0 12.582137,17.223362 a 9.7287253,9.7287253 71.925103 0 1 1.872935,5.738762 l 1.78e-4,16.000886 a 3.1750355,3.1750355 44.99968 0 0 3.175036,3.175 h 30.43742 a 3.1750384,3.1750384 135.00035 0 0 3.17504,-3.175 l 1.9e-4,-16.000886 a 9.7280891,9.7280891 71.925331 0 0 -1.8729,-5.738733 l -12.58258,-17.22342 a 6.2515089,6.2515089 26.924985 0 0 -5.04794,-2.563733 H 86.732715 a 1.6125413,1.6125413 116.92542 0 0 -1.302101,2.563762 z m -41.435845,0 12.582137,17.223362 a 9.7287253,9.7287253 71.925103 0 1 1.872935,5.738762 l 1.78e-4,16.000886 a 3.1750355,3.1750355 44.99968 0 0 3.175036,3.175 h 30.437419 a 3.1750379,3.1750379 135.00034 0 0 3.175038,-3.175 L 95.237703,66.37071 A 9.7280951,9.7280951 71.925334 0 0 93.364804,60.631976 L 80.782226,43.408558 A 6.2515071,6.2515071 26.924992 0 0 75.734289,40.844824 H 45.29687 a 1.6125413,1.6125413 116.92542 0 0 -1.302101,2.563762 z" /><path
         id="path79"
         style="font-weight:bold;font-size:31.6865px;line-height:1.2;font-family:Lato;-inkscape-font-specification:'Lato Bold';font-variant-ligatures:no-common-ligatures;letter-spacing:0px;fill:#f2f2f2;stroke-width:9.80048;paint-order:markers fill stroke"
         d="m 484.75986,49.508688 v 2.800862 h 5.53889 v 15.526495 h 3.4094 V 52.30955 h 5.51367 v -2.800862 z m -40.06526,0 v 18.327357 h 6.99617 c 1.38575,0 2.64902,-0.223958 3.78974,-0.671794 1.14071,-0.447836 2.1166,-1.077289 2.92778,-1.888463 0.81117,-0.811174 1.44104,-1.778747 1.88888,-2.902562 0.44783,-1.123815 0.67137,-2.357352 0.67137,-3.70086 0,-1.343507 -0.22354,-2.577044 -0.67137,-3.700859 -0.44784,-1.123814 -1.07771,-2.087434 -1.88888,-2.890159 -0.81118,-0.811174 -1.78707,-1.440628 -2.92778,-1.888464 -1.14072,-0.456286 -2.40399,-0.684196 -3.78974,-0.684196 z m 3.43462,2.712397 h 3.56155 c 0.89566,0 1.69875,0.147849 2.40853,0.44359 0.71823,0.29574 1.32627,0.722239 1.8248,1.279922 0.49854,0.549233 0.88303,1.225472 1.15342,2.028197 0.27038,0.794275 0.40555,1.694059 0.40555,2.699576 0,1.005519 -0.13517,1.909668 -0.40555,2.712393 -0.27039,0.794275 -0.65488,1.470101 -1.15342,2.027783 -0.49853,0.549233 -1.10657,0.971779 -1.8248,1.26752 -0.70978,0.29574 -1.51287,0.44359 -2.40853,0.44359 h -3.56155 z m -44.39395,-2.712397 v 18.327357 h 6.92051 c 1.06467,0 2.01083,-0.135165 2.8389,-0.405557 0.82807,-0.270391 1.52531,-0.642198 2.09145,-1.115384 0.56613,-0.481634 0.997,-1.05203 1.29273,-1.71111 0.29575,-0.659079 0.44359,-1.377325 0.44359,-2.1547 0,-2.154683 -1.2589,-3.515066 -3.77692,-4.081198 0.56613,-0.194344 1.0521,-0.430986 1.45768,-0.709828 0.41404,-0.278841 0.75175,-0.587226 1.01369,-0.925214 0.27039,-0.34644 0.46899,-0.713881 0.59572,-1.102569 0.12675,-0.397138 0.19018,-0.811365 0.19018,-1.242301 0,-0.752027 -0.12686,-1.427853 -0.38035,-2.027784 -0.25348,-0.59993 -0.65461,-1.111269 -1.20384,-1.533756 -0.54079,-0.422486 -1.23804,-0.747508 -2.09146,-0.975651 -0.84497,-0.228143 -1.86723,-0.342305 -3.0671,-0.342305 z m 3.40941,2.636325 h 2.91537 c 1.14917,0 1.99427,0.202541 2.53504,0.608129 0.54079,0.405587 0.81112,1.085778 0.81112,2.040598 0,0.921021 -0.30007,1.592894 -0.9,2.015381 -0.59993,0.422486 -1.47872,0.63376 -2.63632,0.63376 h -2.72521 z m 0,7.655557 h 3.44744 c 0.59993,0 1.11126,0.05906 1.53375,0.177354 0.42249,0.118297 0.76893,0.291516 1.03932,0.519658 0.27038,0.219693 0.46898,0.490024 0.59572,0.811113 0.12675,0.312641 0.19018,0.667398 0.19018,1.064535 0,0.380238 -0.059,0.739361 -0.17736,1.07735 -0.10985,0.33799 -0.29575,0.63369 -0.55769,0.887181 -0.25349,0.253493 -0.59598,0.456447 -1.02691,0.608542 -0.42249,0.152095 -0.95047,0.228203 -1.5842,0.228203 h -3.46025 z" /></g></g></svg>
