<?xml version="1.0" encoding="UTF-8" standalone="no"?>
<!-- Created with Inkscape (http://www.inkscape.org/) -->

<svg
   width="43.898979mm"
   height="41.612965mm"
   viewBox="0 0 43.898979 41.612965"
   version="1.1"
   id="svg1"
   xmlns="http://www.w3.org/2000/svg"
   xmlns:svg="http://www.w3.org/2000/svg">
  <defs
     id="defs1" />
  <g
     id="layer1"
     transform="translate(-56.885413,-141.55208)">
    <path
       id="rect15"
       style="fill:#1a84d2;fill-opacity:1;stroke-width:2.74226;paint-order:markers fill stroke"
       d="m 46.433222,42.905749 13.316811,18.229036 a 7.8206058,7.8206058 71.925103 0 1 1.505591,4.613204 l 1.92e-4,17.246328 a 2.5523077,2.5523077 44.99968 0 0 2.552308,2.552279 h 31.682861 a 2.5523097,2.5523097 135.00034 0 0 2.552309,-2.552279 l 2.12e-4,-17.68194 a 6.4853966,6.4853966 71.925334 0 0 -1.2486,-3.825823 L 83.220672,42.905726 A 5.0253832,5.0253832 26.924992 0 0 79.1628,40.844824 l -31.682861,0 a 1.2962695,1.2962695 116.92542 0 0 -1.046717,2.060925 z"
       transform="matrix(1,0,-0.36526931,0.93090189,26.17836,103.52956)" />
  </g>
</svg>
