<?xml version="1.0" encoding="UTF-8" standalone="no"?>
<!-- Created with Inkscape (http://www.inkscape.org/) -->

<svg
   width="123.89205mm"
   height="55.260128mm"
   viewBox="0 0 123.89205 55.260128"
   version="1.1"
   id="svg1"
   xml:space="preserve"
   xmlns="http://www.w3.org/2000/svg"
   xmlns:svg="http://www.w3.org/2000/svg"><defs
     id="defs1" /><g
     id="layer1"
     transform="translate(-725.73485,-198.3068)"><g
       id="g67"
       transform="translate(165.89938,18.227842)"><path
         id="path44"
         style="fill:#f2f2f2;fill-opacity:1;stroke-width:2.74226;paint-order:markers fill stroke"
         d="m 46.433222,42.905749 13.316811,18.229036 a 7.8206058,7.8206058 71.925103 0 1 1.505591,4.613204 l 1.92e-4,17.246328 a 2.5523077,2.5523077 44.99968 0 0 2.552308,2.552279 h 31.682861 a 2.5523097,2.5523097 135.00034 0 0 2.552309,-2.552279 l 2.07e-4,-17.246328 A 7.8200992,7.8200992 71.925334 0 0 96.537938,61.134808 L 83.220672,42.905726 A 5.0253832,5.0253832 26.924992 0 0 79.1628,40.844824 l -31.682861,0 a 1.2962695,1.2962695 116.92542 0 0 -1.046717,2.060925 z m 40.033215,0 13.316811,18.229036 a 7.8206058,7.8206058 71.925103 0 1 1.505592,4.613204 l 1.9e-4,17.246328 a 2.5523077,2.5523077 44.99968 0 0 2.55231,2.552279 h 31.68286 a 2.55231,2.55231 135.00035 0 0 2.55231,-2.552279 l 2.1e-4,-17.246328 a 7.8200943,7.8200943 71.925331 0 0 -1.50556,-4.613181 L 123.25388,42.905726 a 5.0253846,5.0253846 26.924985 0 0 -4.05787,-2.060902 l -31.682856,0 a 1.2962695,1.2962695 116.92542 0 0 -1.046717,2.060925 z m 40.032693,0 13.31682,18.229036 a 7.8206038,7.8206038 71.925099 0 1 1.50559,4.613204 l 1.9e-4,17.246328 a 2.5523077,2.5523077 44.99968 0 0 2.55231,2.552279 h 31.68286 a 2.5523089,2.5523089 135.00033 0 0 2.55231,-2.552279 l 2e-4,-17.246328 a 7.8201041,7.8201041 71.925327 0 0 -1.50556,-4.613181 L 163.28658,42.905726 a 5.0253828,5.0253828 26.924993 0 0 -4.05787,-2.060902 h -31.68286 a 1.2962692,1.2962692 116.92542 0 0 -1.04672,2.060925 z"
         transform="matrix(1,0,-0.36526931,0.93090189,529.12843,142.05643)" /><path
         id="path49"
         style="font-weight:bold;font-size:31.6865px;line-height:1.2;font-family:Lato;-inkscape-font-specification:'Lato Bold';font-variant-ligatures:no-common-ligatures;letter-spacing:0px;fill:#1a1a1a;stroke-width:2.64582;paint-order:markers fill stroke"
         d="m 575.4887,189.43084 v 22.90919 h 8.65064 c 1.33083,0 2.51353,-0.16895 3.54862,-0.50694 1.03509,-0.33799 1.90664,-0.80275 2.61431,-1.39423 0.70767,-0.60204 1.24625,-1.31504 1.61592,-2.13889 0.36968,-0.82385 0.55449,-1.72166 0.55449,-2.69337 0,-2.69336 -1.57363,-4.39384 -4.72116,-5.1015 0.70767,-0.24293 1.31513,-0.53873 1.82211,-0.88729 0.51755,-0.34855 0.93968,-0.73403 1.26711,-1.15651 0.33799,-0.43305 0.58623,-0.89236 0.74465,-1.37822 0.15844,-0.49642 0.23772,-1.0142 0.23772,-1.55287 0,-0.94004 -0.15857,-1.78482 -0.47543,-2.53473 -0.31686,-0.74991 -0.81827,-1.38909 -1.50481,-1.9172 -0.67598,-0.5281 -1.54754,-0.93438 -2.61432,-1.21956 -1.05621,-0.28518 -2.33404,-0.42788 -3.83387,-0.42788 z m 39.22086,0 v 22.90919 h 8.74521 c 1.73219,0 3.31128,-0.27994 4.73718,-0.83974 1.42589,-0.55979 2.64575,-1.34661 3.65972,-2.36058 1.01397,-1.01396 1.8013,-2.22343 2.3611,-3.6282 0.55979,-1.40477 0.83922,-2.94669 0.83922,-4.62607 0,-1.67939 -0.27943,-3.22131 -0.83922,-4.62608 -0.5598,-1.40477 -1.34713,-2.60929 -2.3611,-3.6127 -1.01397,-1.01396 -2.23383,-1.80078 -3.65972,-2.36058 -1.4259,-0.57035 -3.00499,-0.85524 -4.73718,-0.85524 z m 38.88859,0 v 3.50108 h 6.92361 v 19.40811 h 4.26175 v -19.40811 h 6.89209 v -3.50108 z m -73.84769,3.2954 h 3.64422 c 1.43646,0 2.49283,0.25318 3.1688,0.76017 0.67598,0.50698 1.01389,1.35722 1.01389,2.55074 0,1.15128 -0.37508,1.99112 -1.125,2.51923 -0.74991,0.52811 -1.84839,0.7922 -3.2954,0.7922 h -3.40651 z m 39.25238,0.0951 h 4.45193 c 1.11958,0 2.12344,0.18482 3.01067,0.55449 0.89778,0.36968 1.65783,0.9028 2.28099,1.5999 0.62318,0.68655 1.10379,1.53184 1.44178,2.53525 0.33798,0.99284 0.50694,2.11757 0.50694,3.37447 0,1.2569 -0.16896,2.38709 -0.50694,3.39049 -0.33799,0.99285 -0.8186,1.83763 -1.44178,2.53473 -0.62316,0.68654 -1.38321,1.21472 -2.28099,1.5844 -0.88723,0.36968 -1.89109,0.55449 -3.01067,0.55449 h -4.45193 z m -39.25238,9.47436 h 4.3093 c 0.74991,0 1.38908,0.0738 1.91719,0.22169 0.52811,0.14787 0.96116,0.3644 1.29915,0.64958 0.33798,0.27461 0.58622,0.61253 0.74465,1.01389 0.15844,0.3908 0.23772,0.83424 0.23772,1.33067 0,0.47529 -0.0738,0.9242 -0.2217,1.34668 -0.13731,0.42249 -0.36968,0.79212 -0.69711,1.10898 -0.31686,0.31687 -0.74497,0.57056 -1.28364,0.76068 -0.52811,0.19012 -1.18808,0.28525 -1.98024,0.28525 h -4.32532 z" /><path
         d="m 561.88742,235.24913 v -8.11286 h 2.79967 q 0.79669,0 1.35775,0.15149 0.56666,0.15148 0.92574,0.43201 0.36469,0.28053 0.533,0.67887 0.16832,0.39835 0.16832,0.89769 0,0.28614 -0.0842,0.54984 -0.0842,0.25808 -0.2637,0.48811 -0.17392,0.22443 -0.44884,0.40957 -0.26931,0.18515 -0.64521,0.3142 1.67194,0.3759 1.67194,1.80659 0,0.51617 -0.19637,0.9538 -0.19637,0.43762 -0.57227,0.75742 -0.37591,0.31419 -0.92575,0.49373 -0.54983,0.17954 -1.25676,0.17954 z m 1.50924,-3.55709 v 2.37887 h 1.53168 q 0.42079,0 0.70132,-0.10099 0.28614,-0.10099 0.45445,-0.26931 0.17393,-0.16831 0.24687,-0.39273 0.0785,-0.22443 0.0785,-0.4769 0,-0.2637 -0.0841,-0.47129 -0.0842,-0.2132 -0.2637,-0.35907 -0.17954,-0.15149 -0.46006,-0.23003 -0.28053,-0.0786 -0.67888,-0.0786 z m 0,-1.04356 h 1.20627 q 0.76864,0 1.16699,-0.28053 0.39835,-0.28053 0.39835,-0.89208 0,-0.63399 -0.35907,-0.9033 -0.35908,-0.2693 -1.12211,-0.2693 h -1.29043 z m 8.10164,-1.24555 q 0.54422,0 0.99868,0.17393 0.46006,0.17393 0.79109,0.51056 0.33102,0.33102 0.51617,0.81914 0.18515,0.48251 0.18515,1.10528 0,0.15709 -0.0168,0.26369 -0.0112,0.10099 -0.0505,0.16271 -0.0337,0.0561 -0.0954,0.0842 -0.0617,0.0224 -0.1571,0.0224 h -3.55708 q 0.0617,0.88647 0.47689,1.30165 0.41518,0.41518 1.09967,0.41518 0.33663,0 0.57789,-0.0786 0.24686,-0.0786 0.4264,-0.17393 0.18515,-0.0954 0.3198,-0.17393 0.14026,-0.0786 0.26931,-0.0786 0.0842,0 0.14587,0.0337 0.0617,0.0337 0.1066,0.0954 l 0.40396,0.50495 q -0.23003,0.26931 -0.51617,0.45446 -0.28614,0.17954 -0.60033,0.29175 -0.30858,0.1066 -0.63399,0.15148 -0.3198,0.0449 -0.62277,0.0449 -0.60033,0 -1.1165,-0.19637 -0.51617,-0.20198 -0.89769,-0.5891 -0.38152,-0.39274 -0.60033,-0.96502 -0.21881,-0.57789 -0.21881,-1.33531 0,-0.58911 0.19076,-1.10528 0.19076,-0.52178 0.54422,-0.9033 0.35908,-0.38712 0.86964,-0.61155 0.51617,-0.22442 1.16138,-0.22442 z m 0.0281,0.99307 q -0.60594,0 -0.94818,0.34224 -0.34224,0.34225 -0.43762,0.97063 h 2.60329 q 0,-0.26931 -0.0729,-0.50495 -0.0729,-0.24125 -0.22443,-0.42079 -0.15148,-0.17954 -0.38151,-0.28053 -0.23004,-0.1066 -0.53862,-0.1066 z m 3.59076,4.85313 v -5.75643 h 0.84719 q 0.26931,0 0.35346,0.25248 l 0.0954,0.45445 q 0.17393,-0.17954 0.36469,-0.32541 0.19637,-0.14587 0.40957,-0.25248 0.21881,-0.1066 0.46568,-0.1627 0.24686,-0.0561 0.53861,-0.0561 0.47128,0 0.83597,0.1627 0.36469,0.1571 0.60594,0.44885 0.24686,0.28614 0.3703,0.6901 0.12904,0.39834 0.12904,0.88085 v 3.66369 h -1.38581 v -3.66369 q 0,-0.52739 -0.24686,-0.81353 -0.24126,-0.29175 -0.72937,-0.29175 -0.35908,0 -0.67327,0.16271 -0.31419,0.16271 -0.59472,0.44323 v 4.16303 z m 8.75807,-5.8462 q 0.54423,0 0.99868,0.17393 0.46006,0.17393 0.79109,0.51056 0.33102,0.33102 0.51617,0.81914 0.18515,0.48251 0.18515,1.10528 0,0.15709 -0.0168,0.26369 -0.0112,0.10099 -0.0505,0.16271 -0.0337,0.0561 -0.0954,0.0842 -0.0617,0.0224 -0.1571,0.0224 h -3.55708 q 0.0617,0.88647 0.47689,1.30165 0.41518,0.41518 1.09967,0.41518 0.33663,0 0.57789,-0.0786 0.24686,-0.0786 0.4264,-0.17393 0.18515,-0.0954 0.3198,-0.17393 0.14026,-0.0786 0.26931,-0.0786 0.0842,0 0.14587,0.0337 0.0617,0.0337 0.1066,0.0954 l 0.40396,0.50495 q -0.23003,0.26931 -0.51617,0.45446 -0.28614,0.17954 -0.60033,0.29175 -0.30858,0.1066 -0.63399,0.15148 -0.3198,0.0449 -0.62277,0.0449 -0.60033,0 -1.1165,-0.19637 -0.51617,-0.20198 -0.89769,-0.5891 -0.38152,-0.39274 -0.60033,-0.96502 -0.21881,-0.57789 -0.21881,-1.33531 0,-0.58911 0.19076,-1.10528 0.19076,-0.52178 0.54422,-0.9033 0.35908,-0.38712 0.86964,-0.61155 0.51617,-0.22442 1.16138,-0.22442 z m 0.0281,0.99307 q -0.60593,0 -0.94818,0.34224 -0.34224,0.34225 -0.43762,0.97063 h 2.60329 q 0,-0.26931 -0.0729,-0.50495 -0.0729,-0.24125 -0.22443,-0.42079 -0.15148,-0.17954 -0.38151,-0.28053 -0.23004,-0.1066 -0.53862,-0.1066 z m 3.83762,4.85313 v -4.71287 l -0.49934,-0.0786 q -0.1627,-0.028 -0.26369,-0.11221 -0.0954,-0.0842 -0.0954,-0.23564 v -0.56666 h 0.85841 v -0.42641 q 0,-0.49373 0.14588,-0.88646 0.15148,-0.39274 0.4264,-0.66766 0.28053,-0.27492 0.67887,-0.42079 0.39835,-0.14587 0.89769,-0.14587 0.39835,0 0.74059,0.1066 l -0.0281,0.6957 q -0.0112,0.16271 -0.15148,0.20198 -0.14027,0.0393 -0.32541,0.0393 -0.24687,0 -0.44324,0.0561 -0.19076,0.0505 -0.32541,0.18515 -0.13465,0.12904 -0.20759,0.34786 -0.0673,0.2132 -0.0673,0.533 v 0.38152 h 1.49802 v 0.98745 h -1.45313 v 4.71847 z m 5.16171,-5.75643 v 5.75643 h -1.38581 v -5.75643 z m 0.20759,-1.67755 q 0,0.17954 -0.0729,0.33663 -0.0729,0.1571 -0.19637,0.27492 -0.11782,0.11782 -0.28052,0.19076 -0.16271,0.0673 -0.34786,0.0673 -0.17954,0 -0.34224,-0.0673 -0.1571,-0.0729 -0.27492,-0.19076 -0.11782,-0.11782 -0.19076,-0.27492 -0.0673,-0.15709 -0.0673,-0.33663 0,-0.18515 0.0673,-0.34786 0.0729,-0.1627 0.19076,-0.28052 0.11782,-0.11783 0.27492,-0.18515 0.1627,-0.0729 0.34224,-0.0729 0.18515,0 0.34786,0.0729 0.1627,0.0673 0.28052,0.18515 0.12343,0.11782 0.19637,0.28052 0.0729,0.16271 0.0729,0.34786 z m 3.24851,7.52375 q -0.74621,0 -1.15017,-0.4208 -0.40396,-0.4264 -0.40396,-1.1726 v -3.21485 h -0.58349 q -0.11221,0 -0.19637,-0.0729 -0.0786,-0.0729 -0.0786,-0.21881 v -0.54983 l 0.92574,-0.15149 0.29175,-1.57095 q 0.0224,-0.11221 0.10099,-0.17393 0.0842,-0.0617 0.20759,-0.0617 h 0.71815 v 1.81221 h 1.51485 v 0.98746 h -1.51485 v 3.11946 q 0,0.26931 0.13465,0.42079 0.13466,0.15149 0.35908,0.15149 0.12904,0 0.2132,-0.028 0.0898,-0.0337 0.15148,-0.0673 0.0673,-0.0337 0.11783,-0.0617 0.0505,-0.0337 0.10099,-0.0337 0.0617,0 0.10098,0.0337 0.0393,0.0281 0.0842,0.0898 l 0.41518,0.67326 q -0.30297,0.25248 -0.6957,0.38152 -0.39274,0.12904 -0.81353,0.12904 z m 11.89997,-4.1462 q 0,0.89208 -0.29736,1.63828 -0.29736,0.7462 -0.83597,1.28482 -0.53861,0.53861 -1.29604,0.83597 -0.75742,0.29736 -1.67755,0.29736 h -3.09703 v -8.11286 h 3.09703 q 0.92013,0 1.67755,0.30297 0.75743,0.29736 1.29604,0.83597 0.53861,0.53301 0.83597,1.27921 0.29736,0.7462 0.29736,1.63828 z m -1.5429,0 q 0,-0.66766 -0.17954,-1.19505 -0.17954,-0.533 -0.51056,-0.89769 -0.33102,-0.37029 -0.80792,-0.56666 -0.47128,-0.19637 -1.066,-0.19637 h -1.57657 v 5.71154 h 1.57657 q 0.59472,0 1.066,-0.19637 0.4769,-0.19637 0.80792,-0.56106 0.33102,-0.37029 0.51056,-0.89768 0.17954,-0.53301 0.17954,-1.20066 z m 5.02705,-1.78977 q 0.54422,0 0.99868,0.17393 0.46006,0.17393 0.79108,0.51056 0.33103,0.33102 0.51617,0.81914 0.18515,0.48251 0.18515,1.10528 0,0.15709 -0.0168,0.26369 -0.0112,0.10099 -0.0505,0.16271 -0.0337,0.0561 -0.0954,0.0842 -0.0617,0.0224 -0.1571,0.0224 h -3.55709 q 0.0617,0.88647 0.4769,1.30165 0.41518,0.41518 1.09967,0.41518 0.33663,0 0.57788,-0.0786 0.24687,-0.0786 0.4264,-0.17393 0.18515,-0.0954 0.31981,-0.17393 0.14026,-0.0786 0.2693,-0.0786 0.0842,0 0.14588,0.0337 0.0617,0.0337 0.1066,0.0954 l 0.40396,0.50495 q -0.23004,0.26931 -0.51617,0.45446 -0.28614,0.17954 -0.60033,0.29175 -0.30858,0.1066 -0.63399,0.15148 -0.31981,0.0449 -0.62278,0.0449 -0.60032,0 -1.1165,-0.19637 -0.51617,-0.20198 -0.89768,-0.5891 -0.38152,-0.39274 -0.60033,-0.96502 -0.21881,-0.57789 -0.21881,-1.33531 0,-0.58911 0.19076,-1.10528 0.19075,-0.52178 0.54422,-0.9033 0.35907,-0.38712 0.86963,-0.61155 0.51617,-0.22442 1.16139,-0.22442 z m 0.0281,0.99307 q -0.60594,0 -0.94818,0.34224 -0.34225,0.34225 -0.43763,0.97063 h 2.6033 q 0,-0.26931 -0.0729,-0.50495 -0.0729,-0.24125 -0.22442,-0.42079 -0.15148,-0.17954 -0.38152,-0.28053 -0.23003,-0.1066 -0.53861,-0.1066 z m 7.63596,0.31419 q -0.0617,0.0785 -0.12343,0.12343 -0.0561,0.0449 -0.16832,0.0449 -0.1066,0 -0.20759,-0.0617 -0.10099,-0.0673 -0.24125,-0.14587 -0.14026,-0.0842 -0.33663,-0.14587 -0.19076,-0.0673 -0.4769,-0.0673 -0.36469,0 -0.6396,0.13465 -0.27492,0.12904 -0.46007,0.37591 -0.17954,0.24686 -0.2693,0.60032 -0.0898,0.34786 -0.0898,0.79109 0,0.46007 0.0954,0.81914 0.10099,0.35908 0.28613,0.60594 0.18515,0.24126 0.44885,0.3703 0.26369,0.12343 0.59472,0.12343 0.33102,0 0.533,-0.0786 0.20759,-0.0842 0.34785,-0.17954 0.14027,-0.10099 0.24126,-0.17953 0.1066,-0.0842 0.23564,-0.0842 0.16832,0 0.25247,0.12904 l 0.39835,0.50495 q -0.23003,0.2693 -0.49934,0.45445 -0.2693,0.17954 -0.56105,0.29175 -0.28614,0.1066 -0.59472,0.15149 -0.30858,0.0449 -0.61155,0.0449 -0.533,0 -1.00429,-0.19637 -0.47128,-0.20198 -0.82475,-0.5835 -0.34785,-0.38152 -0.55544,-0.93135 -0.20198,-0.55545 -0.20198,-1.26238 0,-0.63399 0.17953,-1.1726 0.18515,-0.54422 0.53862,-0.93696 0.35346,-0.39835 0.87524,-0.62277 0.52178,-0.22443 1.20066,-0.22443 0.64521,0 1.12772,0.20759 0.48812,0.2076 0.87525,0.59472 z m 2.78282,-1.21749 v 5.75643 h -1.3858 v -5.75643 z m 0.2076,-1.67755 q 0,0.17954 -0.0729,0.33663 -0.0729,0.1571 -0.19637,0.27492 -0.11782,0.11782 -0.28053,0.19076 -0.1627,0.0673 -0.34785,0.0673 -0.17954,0 -0.34225,-0.0673 -0.15709,-0.0729 -0.27491,-0.19076 -0.11782,-0.11782 -0.19076,-0.27492 -0.0673,-0.15709 -0.0673,-0.33663 0,-0.18515 0.0673,-0.34786 0.0729,-0.1627 0.19076,-0.28052 0.11782,-0.11783 0.27491,-0.18515 0.16271,-0.0729 0.34225,-0.0729 0.18515,0 0.34785,0.0729 0.16271,0.0673 0.28053,0.18515 0.12343,0.11782 0.19637,0.28052 0.0729,0.16271 0.0729,0.34786 z m 4.77457,2.79966 q -0.0561,0.0898 -0.11782,0.12904 -0.0617,0.0337 -0.1571,0.0337 -0.10099,0 -0.21881,-0.0561 -0.11221,-0.0561 -0.26369,-0.12343 -0.15149,-0.0729 -0.34786,-0.12904 -0.19076,-0.0561 -0.45445,-0.0561 -0.40957,0 -0.64521,0.17393 -0.23565,0.17392 -0.23565,0.45445 0,0.18515 0.11782,0.31419 0.12344,0.12343 0.31981,0.21881 0.20197,0.0954 0.45445,0.17393 0.25247,0.0729 0.51617,0.16271 0.2637,0.0898 0.51617,0.20759 0.25248,0.11221 0.44884,0.29175 0.20198,0.17392 0.31981,0.42079 0.12343,0.24686 0.12343,0.59471 0,0.41519 -0.15149,0.76865 -0.15148,0.34785 -0.44323,0.60594 -0.29175,0.25247 -0.72376,0.39835 -0.4264,0.14026 -0.98185,0.14026 -0.29736,0 -0.58349,-0.0561 -0.28053,-0.0505 -0.54423,-0.14587 -0.25808,-0.0954 -0.4825,-0.22442 -0.21882,-0.12905 -0.38713,-0.28053 l 0.3198,-0.52739 q 0.0617,-0.0954 0.14587,-0.14588 0.0842,-0.0505 0.2132,-0.0505 0.12905,0 0.24126,0.0729 0.11782,0.0729 0.2693,0.1571 0.15149,0.0842 0.35347,0.15709 0.20759,0.0729 0.52178,0.0729 0.24686,0 0.42079,-0.0561 0.17954,-0.0617 0.29175,-0.15709 0.11782,-0.0954 0.16832,-0.21881 0.0561,-0.12905 0.0561,-0.2637 0,-0.20198 -0.12343,-0.33102 -0.11782,-0.12905 -0.3198,-0.22442 -0.19637,-0.0954 -0.45446,-0.16832 -0.25247,-0.0786 -0.52178,-0.16832 -0.26369,-0.0898 -0.52178,-0.20759 -0.25247,-0.12343 -0.45445,-0.30858 -0.19637,-0.18515 -0.3198,-0.45445 -0.11783,-0.26931 -0.11783,-0.65083 0,-0.35346 0.14027,-0.67326 0.14026,-0.3198 0.40957,-0.55545 0.27491,-0.24125 0.67887,-0.38151 0.40957,-0.14588 0.94258,-0.14588 0.59471,0 1.08283,0.19637 0.48812,0.19637 0.81353,0.51617 z m 2.96238,-1.12211 v 5.75643 h -1.38581 v -5.75643 z m 0.20759,-1.67755 q 0,0.17954 -0.0729,0.33663 -0.0729,0.1571 -0.19637,0.27492 -0.11782,0.11782 -0.28053,0.19076 -0.1627,0.0673 -0.34785,0.0673 -0.17954,0 -0.34224,-0.0673 -0.1571,-0.0729 -0.27492,-0.19076 -0.11782,-0.11782 -0.19076,-0.27492 -0.0673,-0.15709 -0.0673,-0.33663 0,-0.18515 0.0673,-0.34786 0.0729,-0.1627 0.19076,-0.28052 0.11782,-0.11783 0.27492,-0.18515 0.1627,-0.0729 0.34224,-0.0729 0.18515,0 0.34785,0.0729 0.16271,0.0673 0.28053,0.18515 0.12343,0.11782 0.19637,0.28052 0.0729,0.16271 0.0729,0.34786 z m 3.81517,1.58778 q 0.64521,0 1.16699,0.20759 0.5274,0.20759 0.89769,0.58911 0.3703,0.38152 0.57228,0.93135 0.20198,0.54984 0.20198,1.22871 0,0.68449 -0.20198,1.23432 -0.20198,0.54984 -0.57228,0.93697 -0.37029,0.38712 -0.89769,0.59471 -0.52178,0.20759 -1.16699,0.20759 -0.64521,0 -1.17261,-0.20759 -0.52739,-0.20759 -0.90329,-0.59471 -0.3703,-0.38713 -0.57789,-0.93697 -0.20198,-0.54983 -0.20198,-1.23432 0,-0.67887 0.20198,-1.22871 0.20759,-0.54983 0.57789,-0.93135 0.3759,-0.38152 0.90329,-0.58911 0.5274,-0.20759 1.17261,-0.20759 z m 0,4.86435 q 0.71815,0 1.06039,-0.48251 0.34786,-0.4825 0.34786,-1.41386 0,-0.93135 -0.34786,-1.41946 -0.34224,-0.48812 -1.06039,-0.48812 -0.72937,0 -1.07723,0.49373 -0.34785,0.48811 -0.34785,1.41385 0,0.92574 0.34785,1.41386 0.34786,0.48251 1.07723,0.48251 z m 3.92177,0.98185 v -5.75643 h 0.8472 q 0.2693,0 0.35346,0.25248 l 0.0954,0.45445 q 0.17393,-0.17954 0.36469,-0.32541 0.19637,-0.14587 0.40957,-0.25248 0.21881,-0.1066 0.46567,-0.1627 0.24687,-0.0561 0.53862,-0.0561 0.47128,0 0.83597,0.1627 0.36468,0.1571 0.60594,0.44885 0.24686,0.28614 0.37029,0.6901 0.12905,0.39834 0.12905,0.88085 v 3.66369 h -1.38581 v -3.66369 q 0,-0.52739 -0.24686,-0.81353 -0.24126,-0.29175 -0.72938,-0.29175 -0.35907,0 -0.67326,0.16271 -0.31419,0.16271 -0.59472,0.44323 v 4.16303 z m 14.34059,-8.11286 v 1.23993 h -2.44059 v 6.87293 h -1.50924 v -6.87293 h -2.45181 v -1.23993 z m 2.19372,2.26666 q 0.64522,0 1.167,0.20759 0.52739,0.20759 0.89769,0.58911 0.37029,0.38152 0.57227,0.93135 0.20198,0.54984 0.20198,1.22871 0,0.68449 -0.20198,1.23432 -0.20198,0.54984 -0.57227,0.93697 -0.3703,0.38712 -0.89769,0.59471 -0.52178,0.20759 -1.167,0.20759 -0.64521,0 -1.1726,-0.20759 -0.52739,-0.20759 -0.9033,-0.59471 -0.3703,-0.38713 -0.57789,-0.93697 -0.20198,-0.54983 -0.20198,-1.23432 0,-0.67887 0.20198,-1.22871 0.20759,-0.54983 0.57789,-0.93135 0.37591,-0.38152 0.9033,-0.58911 0.52739,-0.20759 1.1726,-0.20759 z m 0,4.86435 q 0.71816,0 1.0604,-0.48251 0.34785,-0.4825 0.34785,-1.41386 0,-0.93135 -0.34785,-1.41946 -0.34224,-0.48812 -1.0604,-0.48812 -0.72937,0 -1.07722,0.49373 -0.34786,0.48811 -0.34786,1.41385 0,0.92574 0.34786,1.41386 0.34785,0.48251 1.07722,0.48251 z m 6.3792,-4.86435 q 0.64521,0 1.167,0.20759 0.52739,0.20759 0.89768,0.58911 0.3703,0.38152 0.57228,0.93135 0.20198,0.54984 0.20198,1.22871 0,0.68449 -0.20198,1.23432 -0.20198,0.54984 -0.57228,0.93697 -0.37029,0.38712 -0.89768,0.59471 -0.52179,0.20759 -1.167,0.20759 -0.64521,0 -1.1726,-0.20759 -0.5274,-0.20759 -0.9033,-0.59471 -0.3703,-0.38713 -0.57789,-0.93697 -0.20198,-0.54983 -0.20198,-1.23432 0,-0.67887 0.20198,-1.22871 0.20759,-0.54983 0.57789,-0.93135 0.3759,-0.38152 0.9033,-0.58911 0.52739,-0.20759 1.1726,-0.20759 z m 0,4.86435 q 0.71815,0 1.06039,-0.48251 0.34786,-0.4825 0.34786,-1.41386 0,-0.93135 -0.34786,-1.41946 -0.34224,-0.48812 -1.06039,-0.48812 -0.72937,0 -1.07722,0.49373 -0.34786,0.48811 -0.34786,1.41385 0,0.92574 0.34786,1.41386 0.34785,0.48251 1.07722,0.48251 z m 5.39736,-7.35543 v 8.33728 h -1.38581 v -8.33728 z m 2.96798,0 v 4.77458 h 0.25808 q 0.14027,0 0.21881,-0.0393 0.0786,-0.0393 0.16832,-0.14588 l 1.43069,-1.76732 q 0.0954,-0.11221 0.20198,-0.17393 0.1066,-0.0673 0.28053,-0.0673 h 1.26798 l -1.78976,2.13762 q -0.0954,0.11782 -0.19637,0.21881 -0.10099,0.0954 -0.21881,0.16832 0.11782,0.0842 0.20759,0.19637 0.0898,0.11221 0.17953,0.24125 l 1.91881,2.79406 h -1.25115 q -0.16271,0 -0.27492,-0.0561 -0.11221,-0.0561 -0.20198,-0.19076 l -1.46435,-2.18251 q -0.0842,-0.12904 -0.16832,-0.16831 -0.0842,-0.0393 -0.25247,-0.0393 h -0.31419 v 2.63696 h -1.38581 v -8.33728 z m 6.26137,2.58085 v 5.75643 h -1.3858 v -5.75643 z m 0.20759,-1.67755 q 0,0.17954 -0.0729,0.33663 -0.0729,0.1571 -0.19637,0.27492 -0.11782,0.11782 -0.28053,0.19076 -0.16271,0.0673 -0.34785,0.0673 -0.17954,0 -0.34225,-0.0673 -0.15709,-0.0729 -0.27491,-0.19076 -0.11783,-0.11782 -0.19076,-0.27492 -0.0673,-0.15709 -0.0673,-0.33663 0,-0.18515 0.0673,-0.34786 0.0729,-0.1627 0.19076,-0.28052 0.11782,-0.11783 0.27491,-0.18515 0.16271,-0.0729 0.34225,-0.0729 0.18514,0 0.34785,0.0729 0.16271,0.0673 0.28053,0.18515 0.12343,0.11782 0.19637,0.28052 0.0729,0.16271 0.0729,0.34786 z m 3.24851,7.52375 q -0.7462,0 -1.15016,-0.4208 -0.40396,-0.4264 -0.40396,-1.1726 v -3.21485 h -0.5835 q -0.11221,0 -0.19637,-0.0729 -0.0786,-0.0729 -0.0786,-0.21881 v -0.54983 l 0.92574,-0.15149 0.29175,-1.57095 q 0.0225,-0.11221 0.10099,-0.17393 0.0842,-0.0617 0.20759,-0.0617 h 0.71815 v 1.81221 h 1.51485 v 0.98746 h -1.51485 v 3.11946 q 0,0.26931 0.13466,0.42079 0.13465,0.15149 0.35907,0.15149 0.12904,0 0.2132,-0.028 0.0898,-0.0337 0.15149,-0.0673 0.0673,-0.0337 0.11782,-0.0617 0.0505,-0.0337 0.10099,-0.0337 0.0617,0 0.10099,0.0337 0.0393,0.0281 0.0842,0.0898 l 0.41518,0.67326 q -0.30297,0.25248 -0.69571,0.38152 -0.39274,0.12904 -0.81353,0.12904 z"
         id="path64"
         style="font-weight:bold;font-size:11.2211px;line-height:1.2;font-family:Lato;-inkscape-font-specification:'Lato Bold';font-variant-ligatures:no-common-ligatures;letter-spacing:0px;fill:#f2f2f2;stroke-width:2.64584;paint-order:markers fill stroke"
         aria-label="Benefit Decision Toolkit" /></g></g></svg>
