<?xml version="1.0" encoding="UTF-8" standalone="no"?>
<!-- Created with Inkscape (http://www.inkscape.org/) -->

<svg
   width="123.89205mm"
   height="55.259937mm"
   viewBox="0 0 123.89205 55.259938"
   version="1.1"
   id="svg1"
   xml:space="preserve"
   xmlns="http://www.w3.org/2000/svg"
   xmlns:svg="http://www.w3.org/2000/svg"><defs
     id="defs1" /><g
     id="layer1"
     transform="translate(-725.73485,-27.612723)"><g
       id="g43"
       transform="translate(337.86414,-10.253161)"><path
         id="path33"
         style="fill:#1a1a1a;fill-opacity:1;stroke-width:2.74226;paint-order:markers fill stroke"
         d="m 46.433222,42.905749 13.316811,18.229036 a 7.8206058,7.8206058 71.925103 0 1 1.505591,4.613204 l 1.92e-4,17.246328 a 2.5523077,2.5523077 44.99968 0 0 2.552308,2.552279 h 31.682861 a 2.5523097,2.5523097 135.00034 0 0 2.552309,-2.552279 l 2.07e-4,-17.246328 A 7.8200992,7.8200992 71.925334 0 0 96.537938,61.134808 L 83.220672,42.905726 A 5.0253832,5.0253832 26.924992 0 0 79.1628,40.844824 l -31.682861,0 a 1.2962695,1.2962695 116.92542 0 0 -1.046717,2.060925 z m 40.033215,0 13.316811,18.229036 a 7.8206058,7.8206058 71.925103 0 1 1.505592,4.613204 l 1.9e-4,17.246328 a 2.5523077,2.5523077 44.99968 0 0 2.55231,2.552279 h 31.68286 a 2.55231,2.55231 135.00035 0 0 2.55231,-2.552279 l 2.1e-4,-17.246328 a 7.8200943,7.8200943 71.925331 0 0 -1.50556,-4.613181 L 123.25388,42.905726 a 5.0253846,5.0253846 26.924985 0 0 -4.05787,-2.060902 l -31.682856,0 a 1.2962695,1.2962695 116.92542 0 0 -1.046717,2.060925 z m 40.032693,0 13.31682,18.229036 a 7.8206038,7.8206038 71.925099 0 1 1.50559,4.613204 l 1.9e-4,17.246328 a 2.5523077,2.5523077 44.99968 0 0 2.55231,2.552279 h 31.68286 a 2.5523089,2.5523089 135.00033 0 0 2.55231,-2.552279 l 2e-4,-17.246328 a 7.8201041,7.8201041 71.925327 0 0 -1.50556,-4.613181 L 163.28658,42.905726 a 5.0253828,5.0253828 26.924993 0 0 -4.05787,-2.060902 h -31.68286 a 1.2962692,1.2962692 116.92542 0 0 -1.04672,2.060925 z"
         transform="matrix(1,0,-0.36526931,0.93090189,357.16367,-0.156639)" /><path
         id="path42"
         style="font-weight:bold;font-size:31.6865px;line-height:1.2;font-family:Lato;-inkscape-font-specification:'Lato Bold';font-variant-ligatures:no-common-ligatures;letter-spacing:0px;fill:#f2f2f2;stroke-width:2.64582;paint-order:markers fill stroke"
         d="m 403.52394,47.217769 v 22.909196 h 8.65064 c 1.33083,0 2.51353,-0.168956 3.54862,-0.506946 1.03509,-0.337989 1.90664,-0.802748 2.61431,-1.39423 0.70767,-0.602043 1.24625,-1.315038 1.61592,-2.138887 0.36968,-0.823849 0.55449,-1.721657 0.55449,-2.693376 0,-2.693353 -1.57363,-4.393832 -4.72116,-5.101497 0.70767,-0.24293 1.31513,-0.538733 1.82211,-0.887285 0.51755,-0.348551 0.93968,-0.734032 1.26711,-1.156518 0.33799,-0.433049 0.58623,-0.892351 0.74465,-1.378211 0.15844,-0.496422 0.23772,-1.014206 0.23772,-1.552876 0,-0.940034 -0.15857,-1.784816 -0.47543,-2.53473 -0.31686,-0.749913 -0.81827,-1.389086 -1.50481,-1.917195 -0.67598,-0.528108 -1.54754,-0.934385 -2.61432,-1.219564 -1.05621,-0.285179 -2.33404,-0.427881 -3.83387,-0.427881 z m 39.22086,0 v 22.909196 h 8.74521 c 1.73219,0 3.31128,-0.279947 4.73718,-0.839742 1.42589,-0.559795 2.64575,-1.346611 3.65972,-2.360579 1.01397,-1.013968 1.8013,-2.223434 2.3611,-3.628203 0.55979,-1.404768 0.83922,-2.946689 0.83922,-4.626074 0,-1.679384 -0.27943,-3.221305 -0.83922,-4.626074 -0.5598,-1.404768 -1.34713,-2.609293 -2.3611,-3.612699 -1.01397,-1.013968 -2.23383,-1.800785 -3.65972,-2.36058 -1.4259,-0.570357 -3.00499,-0.855245 -4.73718,-0.855245 z m 38.88859,0 v 3.501078 h 6.92361 v 19.408118 h 4.26175 V 50.718847 h 6.89209 v -3.501078 z m -73.84769,3.295406 h 3.64422 c 1.43646,0 2.49283,0.253177 3.1688,0.760161 0.67598,0.506984 1.01389,1.357223 1.01389,2.550748 0,1.151276 -0.37508,1.991118 -1.125,2.519226 -0.74991,0.528108 -1.84839,0.7922 -3.2954,0.7922 h -3.40651 z m 39.25238,0.09509 h 4.45193 c 1.11958,0 2.12344,0.184812 3.01067,0.554488 0.89778,0.369675 1.65783,0.902799 2.28099,1.599902 0.62318,0.686541 1.10379,1.53184 1.44178,2.535246 0.33798,0.992844 0.50694,2.117574 0.50694,3.374471 0,1.256898 -0.16896,2.387085 -0.50694,3.390491 -0.33799,0.992843 -0.8186,1.837626 -1.44178,2.534729 -0.62316,0.686541 -1.38321,1.214723 -2.28099,1.584399 -0.88723,0.369676 -1.89109,0.554488 -3.01067,0.554488 h -4.45193 z m -39.25238,9.474357 h 4.3093 c 0.74991,0 1.38908,0.07382 1.91719,0.221692 0.52811,0.147871 0.96116,0.364395 1.29915,0.649573 0.33798,0.274616 0.58622,0.612529 0.74465,1.013891 0.15844,0.390801 0.23772,0.834247 0.23772,1.330668 0,0.475298 -0.0738,0.924202 -0.2217,1.346688 -0.13731,0.422487 -0.36968,0.792112 -0.69711,1.108976 -0.31686,0.316866 -0.74497,0.570559 -1.28364,0.760678 -0.52811,0.190119 -1.18808,0.285253 -1.98024,0.285253 h -4.32532 z" /><path
         d="m 389.92266,93.036057 v -8.112855 h 2.79967 q 0.79669,0 1.35775,0.151485 0.56666,0.151484 0.92574,0.432012 0.36469,0.280527 0.533,0.678876 0.16832,0.398349 0.16832,0.897688 0,0.286138 -0.0842,0.549834 -0.0842,0.258086 -0.2637,0.488118 -0.17392,0.224422 -0.44884,0.40957 -0.26931,0.185148 -0.64521,0.314191 1.67194,0.375907 1.67194,1.806597 0,0.516171 -0.19637,0.953794 -0.19637,0.437623 -0.57227,0.757424 -0.37591,0.314191 -0.92575,0.493728 -0.54983,0.179538 -1.25676,0.179538 z m 1.50924,-3.557089 v 2.378873 h 1.53168 q 0.42079,0 0.70132,-0.10099 0.28614,-0.100989 0.45445,-0.269306 0.17393,-0.168316 0.24687,-0.392738 0.0785,-0.224422 0.0785,-0.476897 0,-0.263696 -0.0841,-0.471286 -0.0842,-0.213201 -0.2637,-0.359076 -0.17954,-0.151484 -0.46006,-0.230032 -0.28053,-0.07855 -0.67888,-0.07855 z m 0,-1.043562 h 1.20627 q 0.76864,0 1.16699,-0.280528 0.39835,-0.280527 0.39835,-0.892077 0,-0.633992 -0.35907,-0.903299 -0.35908,-0.269306 -1.12211,-0.269306 h -1.29043 z m 8.10164,-1.245542 q 0.54422,0 0.99868,0.173927 0.46006,0.173927 0.79109,0.51056 0.33102,0.331022 0.51617,0.81914 0.18515,0.482507 0.18515,1.105279 0,0.157095 -0.0168,0.263695 -0.0112,0.10099 -0.0505,0.162706 -0.0337,0.05611 -0.0954,0.08416 -0.0617,0.02244 -0.1571,0.02244 h -3.55708 q 0.0617,0.886467 0.47689,1.301647 0.41518,0.415181 1.09967,0.415181 0.33663,0 0.57789,-0.07855 0.24686,-0.07855 0.4264,-0.173927 0.18515,-0.09538 0.3198,-0.173927 0.14026,-0.07855 0.26931,-0.07855 0.0842,0 0.14587,0.03366 0.0617,0.03366 0.1066,0.09538 l 0.40396,0.50495 q -0.23003,0.269306 -0.51617,0.454454 -0.28614,0.179538 -0.60033,0.291749 -0.30858,0.1066 -0.63399,0.151485 -0.3198,0.04488 -0.62277,0.04488 -0.60033,0 -1.1165,-0.196369 -0.51617,-0.20198 -0.89769,-0.589108 -0.38152,-0.392738 -0.60033,-0.965014 -0.21881,-0.577887 -0.21881,-1.335311 0,-0.589108 0.19076,-1.105279 0.19076,-0.521781 0.54422,-0.903298 0.35908,-0.387128 0.86964,-0.61155 0.51617,-0.224422 1.16138,-0.224422 z m 0.0281,0.993067 q -0.60594,0 -0.94818,0.342244 -0.34224,0.342243 -0.43762,0.970625 h 2.60329 q 0,-0.269307 -0.0729,-0.50495 -0.0729,-0.241253 -0.22443,-0.420791 -0.15148,-0.179537 -0.38151,-0.280527 -0.23004,-0.106601 -0.53862,-0.106601 z m 3.59076,4.853126 v -5.756424 h 0.84719 q 0.26931,0 0.35346,0.252474 l 0.0954,0.454455 q 0.17393,-0.179538 0.36469,-0.325412 0.19637,-0.145874 0.40957,-0.252475 0.21881,-0.1066 0.46568,-0.162706 0.24686,-0.05611 0.53861,-0.05611 0.47128,0 0.83597,0.162706 0.36469,0.157095 0.60594,0.448844 0.24686,0.286138 0.3703,0.690097 0.12904,0.398349 0.12904,0.880857 v 3.663689 h -1.38581 v -3.663689 q 0,-0.527392 -0.24686,-0.81353 -0.24126,-0.291749 -0.72937,-0.291749 -0.35908,0 -0.67327,0.162706 -0.31419,0.162706 -0.59472,0.443234 v 4.163028 z m 8.75807,-5.846193 q 0.54423,0 0.99868,0.173927 0.46006,0.173927 0.79109,0.51056 0.33102,0.331022 0.51617,0.81914 0.18515,0.482507 0.18515,1.105279 0,0.157095 -0.0168,0.263695 -0.0112,0.10099 -0.0505,0.162706 -0.0337,0.05611 -0.0954,0.08416 -0.0617,0.02244 -0.1571,0.02244 h -3.55708 q 0.0617,0.886467 0.47689,1.301647 0.41518,0.415181 1.09967,0.415181 0.33663,0 0.57789,-0.07855 0.24686,-0.07855 0.4264,-0.173927 0.18515,-0.09538 0.3198,-0.173927 0.14026,-0.07855 0.26931,-0.07855 0.0842,0 0.14587,0.03366 0.0617,0.03366 0.1066,0.09538 l 0.40396,0.50495 q -0.23003,0.269306 -0.51617,0.454454 -0.28614,0.179538 -0.60033,0.291749 -0.30858,0.1066 -0.63399,0.151485 -0.3198,0.04488 -0.62277,0.04488 -0.60033,0 -1.1165,-0.196369 -0.51617,-0.20198 -0.89769,-0.589108 -0.38152,-0.392738 -0.60033,-0.965014 -0.21881,-0.577887 -0.21881,-1.335311 0,-0.589108 0.19076,-1.105279 0.19076,-0.521781 0.54422,-0.903298 0.35908,-0.387128 0.86964,-0.61155 0.51617,-0.224422 1.16138,-0.224422 z m 0.0281,0.993067 q -0.60593,0 -0.94818,0.342244 -0.34224,0.342243 -0.43762,0.970625 h 2.60329 q 0,-0.269307 -0.0729,-0.50495 -0.0729,-0.241253 -0.22443,-0.420791 -0.15148,-0.179537 -0.38151,-0.280527 -0.23004,-0.106601 -0.53862,-0.106601 z m 3.83762,4.853126 v -4.712862 l -0.49934,-0.07855 q -0.1627,-0.02805 -0.26369,-0.112211 -0.0954,-0.08416 -0.0954,-0.235643 v -0.566665 h 0.85841 v -0.426402 q 0,-0.493729 0.14588,-0.886467 0.15148,-0.392739 0.4264,-0.667656 0.28053,-0.274916 0.67887,-0.420791 0.39835,-0.145874 0.89769,-0.145874 0.39835,0 0.74059,0.1066 l -0.0281,0.695709 q -0.0112,0.162705 -0.15148,0.201979 -0.14027,0.03927 -0.32541,0.03927 -0.24687,0 -0.44324,0.05611 -0.19076,0.0505 -0.32541,0.185148 -0.13465,0.129042 -0.20759,0.347854 -0.0673,0.213201 -0.0673,0.533002 v 0.381518 h 1.49802 v 0.987456 h -1.45313 v 4.718473 z m 5.16171,-5.756424 v 5.756424 h -1.38581 v -5.756424 z m 0.20759,-1.677555 q 0,0.179538 -0.0729,0.336633 -0.0729,0.157096 -0.19637,0.274917 -0.11782,0.117822 -0.28052,0.190759 -0.16271,0.06733 -0.34786,0.06733 -0.17954,0 -0.34224,-0.06733 -0.1571,-0.07294 -0.27492,-0.190759 -0.11782,-0.117821 -0.19076,-0.274917 -0.0673,-0.157095 -0.0673,-0.336633 0,-0.185148 0.0673,-0.347854 0.0729,-0.162706 0.19076,-0.280527 0.11782,-0.117822 0.27492,-0.185149 0.1627,-0.07294 0.34224,-0.07294 0.18515,0 0.34786,0.07294 0.1627,0.06733 0.28052,0.185149 0.12343,0.117821 0.19637,0.280527 0.0729,0.162706 0.0729,0.347854 z m 3.24851,7.523748 q -0.74621,0 -1.15017,-0.420792 -0.40396,-0.426401 -0.40396,-1.172605 v -3.214845 h -0.58349 q -0.11221,0 -0.19637,-0.07294 -0.0786,-0.07294 -0.0786,-0.218811 v -0.549834 l 0.92574,-0.151485 0.29175,-1.570954 q 0.0224,-0.112211 0.10099,-0.173927 0.0842,-0.06172 0.20759,-0.06172 h 0.71815 v 1.812208 h 1.51485 v 0.987456 h -1.51485 v 3.119466 q 0,0.269307 0.13465,0.420791 0.13466,0.151485 0.35908,0.151485 0.12904,0 0.2132,-0.02805 0.0898,-0.03366 0.15148,-0.06733 0.0673,-0.03366 0.11783,-0.06172 0.0505,-0.03366 0.10099,-0.03366 0.0617,0 0.10098,0.03366 0.0393,0.02805 0.0842,0.08977 l 0.41518,0.673266 q -0.30297,0.252474 -0.6957,0.381517 -0.39274,0.129043 -0.81353,0.129043 z m 11.89997,-4.146197 q 0,0.892078 -0.29736,1.638281 -0.29736,0.746203 -0.83597,1.284816 -0.53861,0.538613 -1.29604,0.835972 -0.75742,0.297359 -1.67755,0.297359 h -3.09703 v -8.112855 h 3.09703 q 0.92013,0 1.67755,0.302969 0.75743,0.297359 1.29604,0.835972 0.53861,0.533003 0.83597,1.279206 0.29736,0.746203 0.29736,1.63828 z m -1.5429,0 q 0,-0.667655 -0.17954,-1.195047 -0.17954,-0.533002 -0.51056,-0.897688 -0.33102,-0.370296 -0.80792,-0.566665 -0.47128,-0.19637 -1.066,-0.19637 h -1.57657 v 5.71154 h 1.57657 q 0.59472,0 1.066,-0.196369 0.4769,-0.196369 0.80792,-0.561055 0.33102,-0.370296 0.51056,-0.897688 0.17954,-0.533002 0.17954,-1.200658 z m 5.02705,-1.789765 q 0.54422,0 0.99868,0.173927 0.46006,0.173927 0.79108,0.51056 0.33103,0.331022 0.51617,0.81914 0.18515,0.482507 0.18515,1.105279 0,0.157095 -0.0168,0.263695 -0.0112,0.10099 -0.0505,0.162706 -0.0337,0.05611 -0.0954,0.08416 -0.0617,0.02244 -0.1571,0.02244 h -3.55709 q 0.0617,0.886467 0.4769,1.301647 0.41518,0.415181 1.09967,0.415181 0.33663,0 0.57788,-0.07855 0.24687,-0.07855 0.4264,-0.173927 0.18515,-0.09538 0.31981,-0.173927 0.14026,-0.07855 0.2693,-0.07855 0.0842,0 0.14588,0.03366 0.0617,0.03366 0.1066,0.09538 l 0.40396,0.50495 q -0.23004,0.269306 -0.51617,0.454454 -0.28614,0.179538 -0.60033,0.291749 -0.30858,0.1066 -0.63399,0.151485 -0.31981,0.04488 -0.62278,0.04488 -0.60032,0 -1.1165,-0.196369 -0.51617,-0.20198 -0.89768,-0.589108 -0.38152,-0.392738 -0.60033,-0.965014 -0.21881,-0.577887 -0.21881,-1.335311 0,-0.589108 0.19076,-1.105279 0.19075,-0.521781 0.54422,-0.903298 0.35907,-0.387128 0.86963,-0.61155 0.51617,-0.224422 1.16139,-0.224422 z m 0.0281,0.993067 q -0.60594,0 -0.94818,0.342244 -0.34225,0.342243 -0.43763,0.970625 h 2.6033 q 0,-0.269307 -0.0729,-0.50495 -0.0729,-0.241253 -0.22442,-0.420791 -0.15148,-0.179537 -0.38152,-0.280527 -0.23003,-0.106601 -0.53861,-0.106601 z m 7.63596,0.314191 q -0.0617,0.07855 -0.12343,0.123432 -0.0561,0.04488 -0.16832,0.04488 -0.1066,0 -0.20759,-0.06172 -0.10099,-0.06733 -0.24125,-0.145874 -0.14026,-0.08416 -0.33663,-0.145874 -0.19076,-0.06733 -0.4769,-0.06733 -0.36469,0 -0.6396,0.134653 -0.27492,0.129043 -0.46007,0.375907 -0.17954,0.246864 -0.2693,0.600329 -0.0898,0.347854 -0.0898,0.791088 0,0.460065 0.0954,0.81914 0.10099,0.359075 0.28613,0.605939 0.18515,0.241254 0.44885,0.370297 0.26369,0.123432 0.59472,0.123432 0.33102,0 0.533,-0.07855 0.20759,-0.08416 0.34785,-0.179538 0.14027,-0.100989 0.24126,-0.179537 0.1066,-0.08416 0.23564,-0.08416 0.16832,0 0.25247,0.129042 l 0.39835,0.50495 q -0.23003,0.269306 -0.49934,0.454454 -0.2693,0.179538 -0.56105,0.291749 -0.28614,0.1066 -0.59472,0.151485 -0.30858,0.04488 -0.61155,0.04488 -0.533,0 -1.00429,-0.196369 -0.47128,-0.20198 -0.82475,-0.583497 -0.34785,-0.381518 -0.55544,-0.931352 -0.20198,-0.555444 -0.20198,-1.262373 0,-0.633993 0.17953,-1.172605 0.18515,-0.544224 0.53862,-0.936962 0.35346,-0.398349 0.87524,-0.622771 0.52178,-0.224422 1.20066,-0.224422 0.64521,0 1.12772,0.20759 0.48812,0.207591 0.87525,0.594718 z m 2.78282,-1.217489 v 5.756424 h -1.3858 v -5.756424 z m 0.2076,-1.677555 q 0,0.179538 -0.0729,0.336633 -0.0729,0.157096 -0.19637,0.274917 -0.11782,0.117822 -0.28053,0.190759 -0.1627,0.06733 -0.34785,0.06733 -0.17954,0 -0.34225,-0.06733 -0.15709,-0.07294 -0.27491,-0.190759 -0.11782,-0.117821 -0.19076,-0.274917 -0.0673,-0.157095 -0.0673,-0.336633 0,-0.185148 0.0673,-0.347854 0.0729,-0.162706 0.19076,-0.280527 0.11782,-0.117822 0.27491,-0.185149 0.16271,-0.07294 0.34225,-0.07294 0.18515,0 0.34785,0.07294 0.16271,0.06733 0.28053,0.185149 0.12343,0.117821 0.19637,0.280527 0.0729,0.162706 0.0729,0.347854 z m 4.77457,2.799665 q -0.0561,0.08977 -0.11782,0.129042 -0.0617,0.03366 -0.1571,0.03366 -0.10099,0 -0.21881,-0.05611 -0.11221,-0.05611 -0.26369,-0.123432 -0.15149,-0.07294 -0.34786,-0.129043 -0.19076,-0.05611 -0.45445,-0.05611 -0.40957,0 -0.64521,0.173927 -0.23565,0.173927 -0.23565,0.454454 0,0.185149 0.11782,0.314191 0.12344,0.123432 0.31981,0.218812 0.20197,0.09538 0.45445,0.173927 0.25247,0.07294 0.51617,0.162706 0.2637,0.08977 0.51617,0.20759 0.25248,0.112211 0.44884,0.291749 0.20198,0.173927 0.31981,0.420791 0.12343,0.246864 0.12343,0.594718 0,0.415181 -0.15149,0.768645 -0.15148,0.347855 -0.44323,0.60594 -0.29175,0.252475 -0.72376,0.398349 -0.4264,0.140264 -0.98185,0.140264 -0.29736,0 -0.58349,-0.05611 -0.28053,-0.05049 -0.54423,-0.145874 -0.25808,-0.09538 -0.4825,-0.224422 -0.21882,-0.129043 -0.38713,-0.280528 l 0.3198,-0.527391 q 0.0617,-0.09538 0.14587,-0.145875 0.0842,-0.05049 0.2132,-0.05049 0.12905,0 0.24126,0.07294 0.11782,0.07294 0.2693,0.157095 0.15149,0.08416 0.35347,0.157095 0.20759,0.07294 0.52178,0.07294 0.24686,0 0.42079,-0.05611 0.17954,-0.06172 0.29175,-0.157095 0.11782,-0.09538 0.16832,-0.218812 0.0561,-0.129042 0.0561,-0.263696 0,-0.201979 -0.12343,-0.331022 -0.11782,-0.129043 -0.3198,-0.224422 -0.19637,-0.09538 -0.45446,-0.168317 -0.25247,-0.07855 -0.52178,-0.168316 -0.26369,-0.08977 -0.52178,-0.20759 -0.25247,-0.123433 -0.45445,-0.308581 -0.19637,-0.185148 -0.3198,-0.454454 -0.11783,-0.269307 -0.11783,-0.650824 0,-0.353465 0.14027,-0.673266 0.14026,-0.319801 0.40957,-0.555444 0.27491,-0.241254 0.67887,-0.381518 0.40957,-0.145874 0.94258,-0.145874 0.59471,0 1.08283,0.196369 0.48812,0.196369 0.81353,0.516171 z m 2.96238,-1.12211 v 5.756424 h -1.38581 v -5.756424 z m 0.20759,-1.677555 q 0,0.179538 -0.0729,0.336633 -0.0729,0.157096 -0.19637,0.274917 -0.11782,0.117822 -0.28053,0.190759 -0.1627,0.06733 -0.34785,0.06733 -0.17954,0 -0.34224,-0.06733 -0.1571,-0.07294 -0.27492,-0.190759 -0.11782,-0.117821 -0.19076,-0.274917 -0.0673,-0.157095 -0.0673,-0.336633 0,-0.185148 0.0673,-0.347854 0.0729,-0.162706 0.19076,-0.280527 0.11782,-0.117822 0.27492,-0.185149 0.1627,-0.07294 0.34224,-0.07294 0.18515,0 0.34785,0.07294 0.16271,0.06733 0.28053,0.185149 0.12343,0.117821 0.19637,0.280527 0.0729,0.162706 0.0729,0.347854 z m 3.81517,1.587786 q 0.64521,0 1.16699,0.20759 0.5274,0.207591 0.89769,0.589108 0.3703,0.381517 0.57228,0.931351 0.20198,0.549834 0.20198,1.228711 0,0.684487 -0.20198,1.234321 -0.20198,0.549834 -0.57228,0.936961 -0.37029,0.387128 -0.89769,0.594719 -0.52178,0.20759 -1.16699,0.20759 -0.64521,0 -1.17261,-0.20759 -0.52739,-0.207591 -0.90329,-0.594719 -0.3703,-0.387127 -0.57789,-0.936961 -0.20198,-0.549834 -0.20198,-1.234321 0,-0.678877 0.20198,-1.228711 0.20759,-0.549834 0.57789,-0.931351 0.3759,-0.381517 0.90329,-0.589108 0.5274,-0.20759 1.17261,-0.20759 z m 0,4.864347 q 0.71815,0 1.06039,-0.482508 0.34786,-0.482507 0.34786,-1.413858 0,-0.931352 -0.34786,-1.419469 -0.34224,-0.488118 -1.06039,-0.488118 -0.72937,0 -1.07723,0.493728 -0.34785,0.488118 -0.34785,1.413859 0,0.92574 0.34785,1.413858 0.34786,0.482508 1.07723,0.482508 z m 3.92177,0.981846 v -5.756424 h 0.8472 q 0.2693,0 0.35346,0.252474 l 0.0954,0.454455 q 0.17393,-0.179538 0.36469,-0.325412 0.19637,-0.145874 0.40957,-0.252475 0.21881,-0.1066 0.46567,-0.162706 0.24687,-0.05611 0.53862,-0.05611 0.47128,0 0.83597,0.162706 0.36468,0.157095 0.60594,0.448844 0.24686,0.286138 0.37029,0.690097 0.12905,0.398349 0.12905,0.880857 v 3.663689 h -1.38581 v -3.663689 q 0,-0.527392 -0.24686,-0.81353 -0.24126,-0.291749 -0.72938,-0.291749 -0.35907,0 -0.67326,0.162706 -0.31419,0.162706 -0.59472,0.443234 v 4.163028 z m 14.34059,-8.112855 v 1.239931 h -2.44059 v 6.872924 h -1.50924 v -6.872924 h -2.45181 v -1.239931 z m 2.19372,2.266662 q 0.64522,0 1.167,0.20759 0.52739,0.207591 0.89769,0.589108 0.37029,0.381517 0.57227,0.931351 0.20198,0.549834 0.20198,1.228711 0,0.684487 -0.20198,1.234321 -0.20198,0.549834 -0.57227,0.936961 -0.3703,0.387128 -0.89769,0.594719 -0.52178,0.20759 -1.167,0.20759 -0.64521,0 -1.1726,-0.20759 -0.52739,-0.207591 -0.9033,-0.594719 -0.3703,-0.387127 -0.57789,-0.936961 -0.20198,-0.549834 -0.20198,-1.234321 0,-0.678877 0.20198,-1.228711 0.20759,-0.549834 0.57789,-0.931351 0.37591,-0.381517 0.9033,-0.589108 0.52739,-0.20759 1.1726,-0.20759 z m 0,4.864347 q 0.71816,0 1.0604,-0.482508 0.34785,-0.482507 0.34785,-1.413858 0,-0.931352 -0.34785,-1.419469 -0.34224,-0.488118 -1.0604,-0.488118 -0.72937,0 -1.07722,0.493728 -0.34786,0.488118 -0.34786,1.413859 0,0.92574 0.34786,1.413858 0.34785,0.482508 1.07722,0.482508 z m 6.3792,-4.864347 q 0.64521,0 1.167,0.20759 0.52739,0.207591 0.89768,0.589108 0.3703,0.381517 0.57228,0.931351 0.20198,0.549834 0.20198,1.228711 0,0.684487 -0.20198,1.234321 -0.20198,0.549834 -0.57228,0.936961 -0.37029,0.387128 -0.89768,0.594719 -0.52179,0.20759 -1.167,0.20759 -0.64521,0 -1.1726,-0.20759 -0.5274,-0.207591 -0.9033,-0.594719 -0.3703,-0.387127 -0.57789,-0.936961 -0.20198,-0.549834 -0.20198,-1.234321 0,-0.678877 0.20198,-1.228711 0.20759,-0.549834 0.57789,-0.931351 0.3759,-0.381517 0.9033,-0.589108 0.52739,-0.20759 1.1726,-0.20759 z m 0,4.864347 q 0.71815,0 1.06039,-0.482508 0.34786,-0.482507 0.34786,-1.413858 0,-0.931352 -0.34786,-1.419469 -0.34224,-0.488118 -1.06039,-0.488118 -0.72937,0 -1.07722,0.493728 -0.34786,0.488118 -0.34786,1.413859 0,0.92574 0.34786,1.413858 0.34785,0.482508 1.07722,0.482508 z m 5.39736,-7.355431 v 8.337277 h -1.38581 V 84.69878 Z m 2.96798,0 v 4.774578 h 0.25808 q 0.14027,0 0.21881,-0.03927 0.0786,-0.03927 0.16832,-0.145875 l 1.43069,-1.767323 q 0.0954,-0.112211 0.20198,-0.173927 0.1066,-0.06733 0.28053,-0.06733 h 1.26798 l -1.78976,2.137619 q -0.0954,0.117822 -0.19637,0.218812 -0.10099,0.09538 -0.21881,0.168316 0.11782,0.08416 0.20759,0.196369 0.0898,0.112211 0.17953,0.241254 l 1.91881,2.794054 h -1.25115 q -0.16271,0 -0.27492,-0.05611 -0.11221,-0.05611 -0.20198,-0.190758 l -1.46435,-2.182504 q -0.0842,-0.129043 -0.16832,-0.168317 -0.0842,-0.03927 -0.25247,-0.03927 h -0.31419 v 2.636959 h -1.38581 V 84.69878 Z m 6.26137,2.580853 v 5.756424 h -1.3858 v -5.756424 z m 0.20759,-1.677555 q 0,0.179538 -0.0729,0.336633 -0.0729,0.157096 -0.19637,0.274917 -0.11782,0.117822 -0.28053,0.190759 -0.16271,0.06733 -0.34785,0.06733 -0.17954,0 -0.34225,-0.06733 -0.15709,-0.07294 -0.27491,-0.190759 -0.11783,-0.117821 -0.19076,-0.274917 -0.0673,-0.157095 -0.0673,-0.336633 0,-0.185148 0.0673,-0.347854 0.0729,-0.162706 0.19076,-0.280527 0.11782,-0.117822 0.27491,-0.185149 0.16271,-0.07294 0.34225,-0.07294 0.18514,0 0.34785,0.07294 0.16271,0.06733 0.28053,0.185149 0.12343,0.117821 0.19637,0.280527 0.0729,0.162706 0.0729,0.347854 z m 3.24851,7.523748 q -0.7462,0 -1.15016,-0.420792 -0.40396,-0.426401 -0.40396,-1.172605 v -3.214845 h -0.5835 q -0.11221,0 -0.19637,-0.07294 -0.0786,-0.07294 -0.0786,-0.218811 v -0.549834 l 0.92574,-0.151485 0.29175,-1.570954 q 0.0225,-0.112211 0.10099,-0.173927 0.0842,-0.06172 0.20759,-0.06172 h 0.71815 v 1.812208 h 1.51485 v 0.987456 h -1.51485 v 3.119466 q 0,0.269307 0.13466,0.420791 0.13465,0.151485 0.35907,0.151485 0.12904,0 0.2132,-0.02805 0.0898,-0.03366 0.15149,-0.06733 0.0673,-0.03366 0.11782,-0.06172 0.0505,-0.03366 0.10099,-0.03366 0.0617,0 0.10099,0.03366 0.0393,0.02805 0.0842,0.08977 l 0.41518,0.673266 q -0.30297,0.252474 -0.69571,0.381517 -0.39274,0.129043 -0.81353,0.129043 z"
         id="path43"
         style="font-weight:bold;font-size:11.2211px;line-height:1.2;font-family:Lato;-inkscape-font-specification:'Lato Bold';font-variant-ligatures:no-common-ligatures;letter-spacing:0px;fill:#1a1a1a;stroke-width:2.64584;paint-order:markers fill stroke"
         aria-label="Benefit Decision Toolkit" /></g></g></svg>
